Coordinates
version=1
nRows=43
nColumns=12
inDegrees=yes

Units are S.I. units (second, meters, Newtons, ...)
Angles are in degrees

endheader
time	SC_y	SC_z	SC_x	AC_y	AC_z	AC_x	GH_y	GH_z	GH_yy	EL_x	PS_y
       0.0              -17.02           14.9          74.19          50.63          3.329         -4.436          175.7          1.859          138.8          122.6          36.19
   0.03601              -17.02           14.9          74.19          50.63          3.329         -4.434          175.7          1.863          138.8          122.6          36.19
   0.07202              -17.03          14.89          74.19          50.63          3.328         -4.432          175.7          1.868          138.8          122.6          36.19
     0.108              -17.03          14.89          74.19          50.63          3.327         -4.429          175.6          1.873          138.8          122.6          36.19
     0.144              -17.04          14.89          74.19          50.63          3.326         -4.427          175.6          1.878          138.8          122.6          36.19
    0.1801              -17.04          14.89          74.18          50.63          3.325         -4.424          175.6          1.884          138.8          122.6          36.19
    0.2161              -17.05          14.89          74.18          50.63          3.324         -4.421          175.6           1.89          138.8          122.6          36.19
    0.2521              -17.05          14.88          74.18          50.62          3.323         -4.418          175.6          1.896          138.8          122.6          36.19
    0.2881              -17.06          14.88          74.18          50.62          3.322         -4.415          175.5          1.903          138.8          122.6          36.19
    0.3241              -17.07          14.88          74.17          50.62          3.321         -4.411          175.5           1.91          138.8          122.6          36.19
    0.3601              -17.08          14.88          74.17          50.62           3.32         -4.407          175.5          1.918          138.8          122.6           36.2
    0.3961              -17.08          14.87          74.17          50.62          3.319         -4.403          175.5          1.927          138.8          122.6           36.2
    0.4321              -17.09          14.87          74.16          50.62          3.317         -4.398          175.4          1.936          138.8          122.6           36.2
    0.4681               -17.1          14.87          74.16          50.61          3.316         -4.394          175.4          1.946          138.8          122.5           36.2
    0.5042              -17.11          14.86          74.16          50.61          3.314         -4.388          175.3          1.957          138.8          122.5           36.2
    0.5402              -17.13          14.86          74.15          50.61          3.312         -4.383          175.3          1.968          138.8          122.5          36.21
    0.5762              -17.14          14.86          74.15           50.6           3.31         -4.376          175.3          1.981          138.8          122.5          36.21
    0.6122              -17.15          14.85          74.14           50.6          3.308          -4.37          175.2          1.994          138.8          122.5          36.21
    0.6482              -17.17          14.85          74.14           50.6          3.306         -4.362          175.2          2.009          138.8          122.5          36.21
    0.6842              -17.18          14.84          74.13          50.59          3.303         -4.354          175.1          2.026          138.8          122.5          36.22
    0.7202               -17.2          14.84          74.12          50.59            3.3         -4.345          175.1          2.044          138.8          122.5          36.22
    0.7562              -17.22          14.83          74.12          50.59          3.297         -4.335          175.0          2.064          138.8          122.5          36.22
    0.7922              -17.24          14.82          74.11          50.58          3.294         -4.325          174.9          2.086          138.8          122.5          36.23
    0.8283              -17.27          14.82           74.1          50.57           3.29         -4.313          174.8           2.11          138.8          122.5          36.23
    0.8643               -17.3          14.81          74.09          50.57          3.286         -4.299          174.7          2.137          138.8          122.5          36.24
    0.9003              -17.33           14.8          74.08          50.56          3.281         -4.285          174.6          2.167          138.8          122.5          36.24
    0.9363              -17.36          14.79          74.06          50.55          3.276         -4.268          174.5          2.201          138.8          122.5          36.25
    0.9723               -17.4          14.77          74.05          50.54           3.27         -4.249          174.4          2.239          138.8          122.5          36.26
     1.008              -17.44          14.76          74.03          50.53          3.263         -4.228          174.2          2.282          138.8          122.5          36.26
     1.044              -17.49          14.74          74.01          50.52          3.256         -4.204          174.1           2.33          138.7          122.5          36.27
      1.08              -17.55          14.73          73.99          50.51          3.247         -4.177          173.9          2.386          138.7          122.5          36.28
     1.116              -17.61           14.7          73.97           50.5          3.237         -4.145          173.7           2.45          138.7          122.5           36.3
     1.152              -17.68          14.68          73.94          50.48          3.225         -4.109          173.4          2.523          138.7          122.4          36.31
     1.188              -17.77          14.65          73.91          50.46          3.212         -4.067          173.1          2.609          138.7          122.4          36.33
     1.224              -17.87          14.62          73.87          50.43          3.196         -4.018          172.8          2.709          138.7          122.4          36.35
      1.26              -17.99          14.58          73.82          50.41          3.178          -3.96          172.4          2.827          138.7          122.4          36.37
     1.296              -18.13          14.54          73.77          50.37          3.156          -3.89          171.9          2.967          138.7          122.4          36.39
     1.332               -18.3          14.48          73.71          50.33          3.129         -3.808          171.3          3.136          138.7          122.3          36.43
     1.368              -18.51          14.42          73.63          50.29          3.098         -3.707          170.6          3.339          138.7          122.3          36.46
     1.404              -18.76          14.34          73.53          50.23          3.059         -3.585          169.8          3.588          138.7          122.2          36.51
      1.44              -19.06          14.24          73.42          50.16          3.011         -3.434          168.7          3.894          138.7          122.2          36.57
     1.476              -19.45          14.11          73.27          50.07          2.951         -3.246          167.4          4.277          138.7          122.1          36.64
     1.512              -19.93          13.96          73.09          49.96          2.875         -3.008          165.7          4.759          138.7          122.0          36.73
